#!OML:ASF H:\Pregnant\Project 1\Capture day 1\Session 1\femalepreg.ASF
:FULLY-SPECIFIED
:DEGREES
481
root 2.23954 15.5493 -17.876 -159.632 -2.30144 -187.183
lowerback -13.5116 -4.46242 -8.95621
upperback -7.55495 -6.05515 -0.263282
thorax 0.310276 -3.29624 3.87891
lowerneck -22.4472 1.0457 4.47379
upperneck 39.5063 3.34789 -0.40416
head 18.9121 3.08626 0.147731
rclavicle 3.27591e-014 1.09332e-015
rhumerus -72.4619 1.19862 -65.3773
rradius 19.5502
rwrist -10.8775
rhand -19.5096 -26.5377
rfingers 7.12502
rthumb 6.81321 -56.4081
lclavicle 3.27591e-014 1.09332e-015
lhumerus -9.28869 -14.9103 78.7421
lradius 112.316
lwrist 44.4749
lhand -34.1241 -15.3458
lfingers 7.12502
lthumb -7.29939 14.5083
rfemur -74.8792 7.14902 13.9535
rtibia 62.2724
rfoot -1.73535 -15.0809
rtoes -0.0142786
lfemur -17.0964 -16.365 -30.6785
ltibia 17.1979
lfoot -14.9783 -5.16624
ltoes -4.04689
482
root 2.26768 15.5507 -18.0412 -159.498 -2.4252 -187.153
lowerback -13.7467 -4.46682 -9.01481
upperback -7.53912 -6.03338 -0.260139
thorax 0.453241 -3.29224 3.89691
lowerneck -22.5623 0.857705 4.38156
upperneck 39.585 3.02824 -0.264385
head 18.9734 2.97142 0.164416
rclavicle 3.10811e-014 -7.65321e-015
rhumerus -73.4218 0.903321 -64.6927
rradius 19.4141
rwrist -10.7417
rhand -19.8598 -26.7087
rfingers 7.12502
rthumb 6.47518 -56.5897
lclavicle 3.10811e-014 -7.65321e-015
lhumerus -8.81207 -15.5935 78.6252
lradius 113.601
lwrist 44.3268
lhand -33.8338 -15.9286
lfingers 7.12502
lthumb -7.01912 13.935
rfemur -74.6445 7.57999 13.3378
rtibia 60.1957
rfoot -2.13493 -16.3219
rtoes 0.802014
lfemur -15.9873 -16.3375 -30.5825
ltibia 16.116
lfoot -14.7743 -5.42793
ltoes -4.88736
483
root 2.29596 15.5522 -18.2074 -159.37 -2.52862 -187.111
lowerback -13.9526 -4.45149 -9.06706
upperback -7.54264 -5.99272 -0.252096
thorax 0.557162 -3.27788 3.92374
lowerneck -22.6591 0.662564 4.25589
upperneck 39.6356 2.70018 -0.108573
head 19.0127 2.84937 0.19132
rclavicle -8.05124e-014 -5.75482e-014
rhumerus -74.3724 0.646172 -64.1075
rradius 19.3205
rwrist -10.6728
rhand -20.1551 -26.8448
rfingers 7.12502
rthumb 6.19008 -56.7343
lclavicle -8.05124e-014 -5.75482e-014
lhumerus -8.44959 -16.3224 78.574
lradius 114.828
lwrist 44.0527
lhand -33.5424 -16.5098
lfingers 7.12502
lthumb -6.73782 13.363
rfemur -74.3418 8.04836 12.6984
rtibia 58.0983
rfoot -2.59848 -17.7407
rtoes 1.78278
lfemur -14.834 -16.3138 -30.4712
ltibia 14.9623
lfoot -14.4926 -5.69604
ltoes -5.64844
484
root 2.32398 15.5537 -18.3752 -159.262 -2.6094 -187.067
lowerback -14.1396 -4.41921 -9.11536
upperback -7.5517 -5.93261 -0.244116
thorax 0.642005 -3.25313 3.954
lowerneck -22.746 0.461977 4.11482
upperneck 39.6639 2.36987 0.0377835
head 19.0373 2.7214 0.214745
rclavicle 7.43043e-014 3.15571e-015
rhumerus -75.2988 0.419737 -63.63
rradius 19.2687
rwrist -10.6778
rhand -20.3891 -26.9335
rfingers 7.12502
rthumb 5.96414 -56.8296
lclavicle 7.43043e-014 3.15571e-015
lhumerus -8.17727 -17.0948 78.5696
lradius 115.983
lwrist 43.6626
lhand -33.2761 -17.1385
lfingers 7.12502
lthumb -6.48079 12.7423
rfemur -73.9642 8.54714 12.0365
rtibia 56.0059
rfoot -3.12706 -19.3165
rtoes 2.92183
lfemur -13.6067 -16.2927 -30.3639
ltibia 13.7236
lfoot -14.1272 -5.96861
ltoes -6.32374
485
root 2.3523 15.5538 -18.5426 -159.154 -2.67721 -187.016
lowerback -14.33 -4.36368 -9.15617
upperback -7.57841 -5.84679 -0.236974
thorax 0.705206 -3.21597 3.98501
lowerneck -22.8437 0.240472 3.96999
upperneck 39.6941 2.01827 0.158426
head 19.0672 2.58114 0.221934
rclavicle -9.66357e-015 -4.2689e-014
rhumerus -76.2149 0.202075 -63.2492
rradius 19.2487
rwrist -10.7582
rhand -20.5304 -27.029
rfingers 7.12502
rthumb 5.82771 -56.9288
lclavicle -9.66357e-015 -4.2689e-014
lhumerus -8.03923 -17.9323 78.6396
lradius 117.104
lwrist 43.2006
lhand -33.0343 -17.5567
lfingers 7.12502
lthumb -6.24736 12.3312
rfemur -73.5539 9.07478 11.358
rtibia 53.9434
rfoot -3.71382 -21.0179
rtoes 4.18782
lfemur -12.3314 -16.2754 -30.2463
ltibia 12.3885
lfoot -13.672 -6.2371
ltoes -6.96645
486
root 2.37959 15.5532 -18.7121 -159.064 -2.73529 -186.962
lowerback -14.508 -4.29829 -9.17428
upperback -7.614 -5.7538 -0.231973
thorax 0.749217 -3.17537 4.00453
lowerneck -22.9196 0.0261192 3.8115
upperneck 39.7093 1.68742 0.272528
head 19.0842 2.4456 0.232186
rclavicle -6.00702e-014 -1.54804e-014
rhumerus -77.088 0.0258505 -63.0097
rradius 19.2652
rwrist -10.9365
rhand -20.5907 -27.1349
rfingers 7.12502
rthumb 5.76951 -57.0363
lclavicle -6.00702e-014 -1.54804e-014
lhumerus -8.0329 -18.7949 78.75
lradius 118.168
lwrist 42.6822
lhand -32.8203 -18.0155
lfingers 7.12502
lthumb -6.04075 11.8784
rfemur -73.0872 9.60343 10.6859
rtibia 51.9473
rfoot -4.37941 -22.7769
rtoes 5.50373
lfemur -10.9596 -16.2559 -30.1419
ltibia 10.9372
lfoot -13.1327 -6.50529
ltoes -7.56393
487
root 2.40644 15.5508 -18.8844 -158.989 -2.78175 -186.912
lowerback -14.6647 -4.21883 -9.16299
upperback -7.67412 -5.65475 -0.245115
thorax 0.750617 -3.13263 3.99342
lowerneck -22.9654 -0.185729 3.66099
upperneck 39.7282 1.36756 0.378961
head 19.097 2.31658 0.240048
rclavicle 2.12405e-014 1.74434e-014
rhumerus -77.9365 -0.123861 -62.9074
rradius 19.2997
rwrist -11.1656
rhand -20.5616 -27.2569
rfingers 7.12502
rthumb 5.79766 -57.1576
lclavicle 2.12405e-014 1.74434e-014
lhumerus -8.20119 -19.684 78.8879
lradius 119.163
lwrist 42.1162
lhand -32.6211 -18.5528
lfingers 7.12502
lthumb -5.84838 11.3465
rfemur -72.5788 10.1295 10.0329
rtibia 50.0501
rfoot -5.12718 -24.5347
rtoes 6.76198
lfemur -9.47709 -16.0554 -30.088
ltibia 9.3553
lfoot -12.5445 -6.94004
ltoes -8.08418
488
root 2.43235 15.5456 -19.0598 -158.922 -2.8199 -186.875
lowerback -14.827 -4.14233 -9.15248
upperback -7.74186 -5.56127 -0.253151
thorax 0.747918 -3.09297 3.98734
lowerneck -22.9649 -0.386616 3.5014
upperneck 39.7231 1.07955 0.465108
head 19.0845 2.19484 0.245548
rclavicle -1.32821e-014 -1.95554e-014
rhumerus -78.7037 -0.2303 -62.9343
rradius 19.3485
rwrist -11.4448
rhand -20.4498 -27.341
rfingers 7.12502
rthumb 5.90559 -57.2387
lclavicle -1.32821e-014 -1.95554e-014
lhumerus -8.5246 -20.5581 79.0701
lradius 120.067
lwrist 41.5073
lhand -32.4528 -19.2184
lfingers 7.12502
lthumb -5.68587 10.6853
rfemur -72.045 10.6226 9.42505
rtibia 48.2848
rfoot -5.941 -26.2339
rtoes 7.83071
lfemur -7.87263 -15.8515 -30.0533
ltibia 7.58598
lfoot -11.84 -7.37393
ltoes -8.56303
489
root 2.45751 15.5372 -19.2394 -158.86 -2.84965 -186.853
lowerback -15.0145 -4.07358 -9.14586
upperback -7.80513 -5.47464 -0.253141
thorax 0.765124 -3.0574 3.98866
lowerneck -22.9438 -0.576339 3.32268
upperneck 39.6984 0.821787 0.53737
head 19.0562 2.07811 0.253457
rclavicle -1.13536e-013 -7.15128e-014
rhumerus -79.359 -0.314716 -63.0528
rradius 19.3931
rwrist -11.7101
rhand -20.2627 -27.3455
rfingers 7.12502
rthumb 6.08619 -57.238
lclavicle -1.13536e-013 -7.15128e-014
lhumerus -8.99588 -21.4094 79.2983
lradius 120.875
lwrist 40.8292
lhand -32.3202 -20.0121
lfingers 7.12502
lthumb -5.55792 9.89505
rfemur -71.489 11.071 8.88727
rtibia 46.6741
rfoot -6.83097 -27.7993
rtoes 8.69109
lfemur -6.11758 -15.6444 -30.0388
ltibia 5.58016
lfoot -10.9927 -7.80855
ltoes -8.99757
490
root 2.48175 15.5251 -19.4231 -158.8 -2.88062 -186.841
lowerback -15.3273 -4.02887 -9.15032
upperback -7.79397 -5.38902 -0.234727
thorax 0.931401 -3.02479 4.00175
lowerneck -22.9483 -0.750147 3.12156
upperneck 39.6181 0.58612 0.590993
head 19.0025 1.95559 0.25806
rclavicle 4.36208e-014 4.65156e-014
rhumerus -79.7969 -0.419087 -63.2675
rradius 19.4186
rwrist -11.9602
rhand -19.977 -27.2685
rfingers 7.12502
rthumb 6.36203 -57.1529
lclavicle 4.36208e-014 4.65156e-014
lhumerus -9.52607 -22.2099 79.5587
lradius 121.578
lwrist 40.0771
lhand -32.2132 -20.9432
lfingers 7.12502
lthumb -5.45461 8.96663
rfemur -70.9138 11.4505 8.45537
rtibia 45.2318
rfoot -7.77267 -29.1826
rtoes 9.33829
lfemur -4.06535 -15.4422 -30.0338
ltibia 3.05508
lfoot -9.86272 -8.26954
ltoes -9.42262
